HIERARCHY
ROOT Root
{
  OFFSET 9.97217 12.0067 -21.6385
  CHANNELS 6 Xposition Yposition Zposition Zrotation Xrotation Yrotation
  JOINT Spine
  {
    OFFSET 5.3114 0 0
    CHANNELS 3 Zrotation Xrotation Yrotation
    JOINT Spine1
    {
      OFFSET 2.79004 0 0
      CHANNELS 3 Zrotation Xrotation Yrotation
      JOINT Neck
      {
        OFFSET 1.43377 0 0
        CHANNELS 3 Zrotation Xrotation Yrotation
        JOINT Head
        {
          OFFSET 1.86043 0 0
          CHANNELS 3 Zrotation Xrotation Yrotation
          End Site
          {
            OFFSET 0 0 0
          }
        }
      }
      JOINT LeftArm
      {
        OFFSET 0.0387506 0 2.55754
        CHANNELS 3 Zrotation Xrotation Yrotation
        JOINT LeftForeArm
        {
          OFFSET 4.24845 0 0
          CHANNELS 3 Zrotation Xrotation Yrotation
          JOINT LeftHand
          {
            OFFSET 4.01008 0 0
            CHANNELS 3 Zrotation Xrotation Yrotation
            End Site
            {
              OFFSET 0 0 0
            }
          }
        }
      }
      JOINT RightArm
      {
        OFFSET 0.0387506 0 -2.55754
        CHANNELS 3 Zrotation Xrotation Yrotation
        JOINT RightForeArm
        {
          OFFSET -4.24845 0 0
          CHANNELS 3 Zrotation Xrotation Yrotation
          JOINT RightHand
          {
            OFFSET -4.01009 0 0
            CHANNELS 3 Zrotation Xrotation Yrotation
            End Site
            {
              OFFSET 0 0 0
            }
          }
        }
      }
    }
  }
  JOINT LeftUpLeg
  {
    OFFSET -1.23318 0 2.05692
    CHANNELS 3 Zrotation Xrotation Yrotation
    JOINT LeftLeg
    {
      OFFSET 5.46397 0 0
      CHANNELS 3 Zrotation Xrotation Yrotation
      JOINT LeftFoot
      {
        OFFSET 4.68898 0 0
        CHANNELS 3 Zrotation Xrotation Yrotation
        End Site
        {
          OFFSET 0 0 0
        }
      }
    }
  }
  JOINT RightUpLeg
  {
    OFFSET -1.24454 0 -2.05007
    CHANNELS 3 Zrotation Xrotation Yrotation
    JOINT RightLeg
    {
      OFFSET -5.46397 0 0
      CHANNELS 3 Zrotation Xrotation Yrotation
      JOINT RightFoot
      {
        OFFSET -4.68901 0 0
        CHANNELS 3 Zrotation Xrotation Yrotation
        End Site
        {
          OFFSET 0 0 0
        }
      }
    }
  }
}
MOTION
Frames:	8
Frame Time:	0.00833333
6.68956 11.3903 1.1036 103.312 1.59609 6.66999 7.66761 3.55413 -1.87377 -4.99396 1.08499 -0.539421 -4.621 -3.27264 -12.0627 -2.313 -4.7253 10.3919 7.22143 3.77208 -171.84 15.1991 -0.938478 8.97764 2.60417 17.9156 174.044 170.118 -47.2124 -172.299 52.659 6.95322 30.0002 0.772717 5.4885 174.428 -37.6302 3.79653 -169.735 -40.1929 0.605054 -0.53577 8.36247 -7.11488 -177.04 173.167 -5.71569 167.772 -37.7794 0.563123 -0.751634 37.2708 -4.02005 -175.646 
6.55536 11.369 1.18635 103.789 0.718056 7.0282 7.62205 3.56821 -2.16054 -5.05411 1.08783 -0.367085 -4.71933 -3.18331 -11.9158 -2.67434 -4.6176 10.1134 6.63694 3.34308 -171.478 15.3795 -0.936234 9.08481 2.50491 17.2747 174.074 170.368 -47.4185 -171.933 53.1847 7.16641 30.2596 0.743135 5.27908 174.43 -38.3054 4.26829 -170.036 -36.1299 0.563391 -0.598478 6.70607 -6.39176 -177.248 174.234 -5.70337 168.518 -36.5836 0.533003 -0.765341 37.2944 -4.90932 -175.193 
6.4191 11.3485 1.26643 104.244 -0.0550669 7.2648 7.5638 3.5658 -2.28372 -5.09549 1.08376 -0.227225 -4.77367 -3.12005 -11.7961 -3.08394 -4.55271 9.87246 6.06988 2.82482 -171.088 15.6143 -0.931689 9.22418 2.39193 16.5395 174.107 170.69 -47.5082 -171.53 53.6357 7.35134 30.4813 0.704107 5.00261 174.432 -38.9837 4.8818 -170.274 -32.1857 0.518607 -0.654856 5.61033 -5.76919 -177.365 175.364 -5.67742 169.177 -35.1935 0.503276 -0.777865 37.1179 -5.7275 -174.784 
6.28253 11.3314 1.34326 104.605 -0.769804 7.2203 7.56369 3.60627 -2.01406 -5.11701 1.08851 -0.200782 -4.781 -3.07465 -11.7507 -3.49185 -4.50307 9.73381 5.57083 2.17257 -170.694 15.943 -0.922537 9.41913 2.26613 15.714 174.142 171.054 -47.4688 -171.105 53.9776 7.49115 30.6502 0.661798 4.70276 174.435 -39.6433 5.66464 -170.283 -28.6068 0.479829 -0.702937 5.50447 -5.4129 -177.358 176.511 -5.9543 169.538 -33.7353 0.481304 -0.78538 36.7726 -6.28179 -174.524 
6.14541 11.3181 1.41709 104.862 -1.42372 6.67127 7.62512 3.73739 -1.03162 -5.10811 1.11375 -0.39159 -4.71704 -3.07143 -11.8396 -3.94998 -4.50756 9.78143 5.17391 1.25064 -170.272 16.4153 -0.907264 9.69927 2.11775 14.7317 174.18 171.436 -47.2823 -170.67 54.2199 7.58983 30.7707 0.613183 4.35804 174.437 -40.5097 6.75374 -169.79 -25.6057 0.450251 -0.740721 6.97543 -5.50495 -177.145 177.698 -6.73973 169.347 -32.0164 0.468843 -0.785068 36.1344 -6.53677 -174.442 
6.00707 11.3072 1.48808 105.03 -1.99883 5.76207 7.70823 3.91498 0.455544 -5.07244 1.14856 -0.72907 -4.59119 -3.10591 -12.0218 -4.46355 -4.56555 9.9585 4.85425 0.125804 -169.817 16.9969 -0.887406 10.0443 1.95037 13.6129 174.221 171.849 -46.9602 -170.218 54.376 7.65426 30.8477 0.556546 3.95621 174.44 -41.551 8.08416 -168.952 -23.0019 0.424752 -0.769751 9.63879 -5.91073 -176.768 178.92 -7.82098 168.776 -30.0449 0.462035 -0.77957 35.223 -6.59079 -174.485 
5.8685 11.2991 1.55559 105.091 -2.5176 4.88533 7.82642 4.06194 1.88419 -5.03081 1.17485 -1.03253 -4.45056 -3.12683 -12.1929 -4.91276 -4.59031 10.1186 4.566 -0.944164 -169.38 17.6014 -0.865235 10.4029 1.78428 12.4921 174.259 172.32 -46.5347 -169.745 54.4166 7.67197 30.8668 0.500003 3.55479 174.443 -42.3304 9.38722 -168.253 -20.4529 0.399984 -0.793365 12.4627 -6.32124 -176.38 -179.888 -8.89251 168.264 -28.2482 0.459822 -0.773244 34.2819 -6.45208 -174.628 
5.73073 11.2943 1.61898 105.04 -3.00193 4.43432 8.00552 4.1049 2.69023 -5.00465 1.17461 -1.12128 -4.3416 -3.08309 -12.2483 -5.1788 -4.49541 10.1153 4.25188 -1.70357 -169.014 18.1422 -0.843024 10.7236 1.63904 11.5037 174.29 172.874 -46.0378 -169.243 54.3123 7.63037 30.814 0.451647 3.21133 174.444 -42.3555 10.4078 -168.186 -17.6161 0.372598 -0.814904 14.4043 -6.42845 -176.141 -178.75 -9.65841 168.258 -27.0535 0.461146 -0.770449 33.5566 -6.12868 -174.849 
